<?xml version="1.0" standalone="no"?>
<!DOCTYPE svg PUBLIC "-//W3C//DTD SVG 20010904//EN"
 "http://www.w3.org/TR/2001/REC-SVG-20010904/DTD/svg10.dtd">
<svg version="1.0" xmlns="http://www.w3.org/2000/svg"
 width="1000.000000pt" height="938.000000pt" viewBox="0 0 1000.000000 938.000000"
 preserveAspectRatio="xMidYMid meet">
<metadata>
Created by potrace 1.13, written by Peter Selinger 2001-2015
</metadata>
<g transform="translate(0.000000,938.000000) scale(0.100000,-0.100000)"
fill="#000000" stroke="none">
<path d="M5770 8992 c-84 -28 -109 -44 -192 -124 -42 -40 -93 -87 -115 -105
-192 -160 -243 -206 -243 -224 0 -10 3 -19 6 -19 6 0 53 37 115 92 15 13 69
57 120 98 51 41 114 96 140 123 26 26 53 47 61 47 7 0 31 12 52 26 22 15 64
31 101 37 55 9 70 8 129 -11 37 -12 72 -22 79 -22 7 0 26 -13 42 -30 16 -16
37 -30 47 -30 10 0 18 -4 18 -8 0 -10 111 -79 670 -417 207 -125 428 -260 580
-353 82 -51 120 -102 120 -162 0 -22 -7 -52 -16 -65 -23 -36 -13 -53 15 -24
13 13 30 35 39 47 13 20 13 25 1 33 -12 7 -12 10 0 18 10 7 11 13 1 31 -9 17
-9 24 0 30 16 10 -9 67 -41 96 -22 19 -452 281 -489 297 -8 4 -56 33 -106 65
-50 32 -117 74 -150 92 -32 19 -89 53 -126 77 -38 24 -68 41 -68 38 0 -2 -51
27 -112 66 -105 64 -158 84 -158 58 0 -5 -4 -8 -9 -5 -5 3 -7 15 -4 25 6 22
-72 76 -228 160 -115 61 -189 73 -279 43z"/>
<path d="M5805 8614 c-64 -20 -82 -34 -315 -245 -139 -126 -255 -228 -294
-257 -38 -29 -55 -28 -28 1 12 13 22 28 22 34 0 24 -45 93 -59 93 -9 0 -42
-24 -75 -53 l-59 -53 56 -38 c33 -23 60 -35 68 -31 7 5 10 4 5 -3 -8 -13 14
-29 339 -232 143 -90 332 -209 420 -265 449 -285 523 -330 613 -377 53 -28
121 -66 150 -85 30 -19 58 -33 62 -31 8 3 58 49 241 222 362 343 389 370 384
386 -6 18 28 55 42 47 5 -3 15 -2 23 3 19 12 -9 37 -82 75 -32 17 -102 56
-156 89 -133 80 -435 265 -559 343 -57 35 -111 66 -120 70 -10 4 -20 10 -23
13 -3 4 -90 58 -195 122 -104 63 -213 129 -241 147 -64 40 -143 49 -219 25z"/>
<path d="M5075 8416 c-27 -13 -65 -37 -82 -53 -18 -16 -49 -44 -68 -62 -19
-17 -35 -38 -35 -45 0 -8 -5 -16 -10 -18 -6 -2 -2 -11 9 -20 19 -16 24 -14
124 75 94 83 152 144 116 121 -9 -5 -10 -2 -6 9 3 10 5 17 4 17 -1 -1 -24 -11
-52 -24z"/>
<path d="M4935 7715 c-49 -30 -94 -56 -100 -59 -6 -3 -4 -9 4 -15 11 -7 26 -3
56 15 23 13 47 24 54 24 18 0 121 -68 121 -80 0 -5 -15 -17 -32 -27 -27 -14
-29 -18 -15 -21 10 -2 32 2 48 8 22 9 28 17 24 30 -3 10 -1 21 5 25 7 4 -15
22 -49 43 -34 20 -61 41 -61 47 0 7 12 17 26 24 23 10 32 8 68 -13 22 -13 50
-32 61 -40 20 -16 20 -16 -4 -36 -19 -16 -20 -21 -8 -26 23 -9 60 15 52 33 -3
9 -1 20 6 23 12 8 -129 100 -152 100 -8 -1 -54 -25 -104 -55z"/>
<path d="M7411 7639 c-13 -10 -20 -19 -16 -19 4 0 -13 -16 -38 -35 -25 -19
-47 -38 -49 -42 -1 -5 -23 -26 -48 -47 -55 -47 -289 -267 -424 -396 l-98 -95
7 -110 c4 -60 7 -120 7 -133 0 -13 4 -22 8 -20 5 2 80 73 167 158 87 85 235
227 328 315 94 88 187 178 207 199 35 37 40 56 17 56 -6 0 -7 -4 -4 -10 3 -5
-1 -10 -10 -10 -10 0 -13 -5 -9 -12 4 -6 3 -8 -3 -5 -5 3 -8 20 -5 36 2 17 8
29 12 26 5 -3 11 9 15 26 5 21 3 34 -5 39 -8 5 -11 22 -8 45 5 47 -17 62 -51
34z"/>
<path d="M7591 7561 c-2 -49 -36 -115 -79 -152 -74 -64 -321 -298 -502 -475
-102 -100 -201 -195 -220 -212 l-34 -30 3 -168 c1 -93 6 -172 10 -176 10 -12
734 704 775 767 l36 53 0 141 c0 77 5 163 11 190 6 28 9 61 6 73 -3 16 -5 13
-6 -11z"/>
<path d="M5265 7538 c-38 -23 -83 -50 -100 -60 l-30 -18 29 0 c16 0 60 18 98
40 39 22 74 40 80 40 15 0 128 -70 128 -80 0 -4 -32 -26 -70 -49 -39 -23 -68
-46 -65 -52 10 -15 20 -11 92 30 59 35 68 44 69 70 1 17 -1 31 -5 31 -3 0 -37
20 -74 45 -38 25 -72 45 -75 45 -4 0 -38 -19 -77 -42z"/>
<path d="M3772 7292 c-43 -39 -50 -50 -40 -60 15 -15 -17 -47 -208 -211 -60
-52 -118 -103 -129 -115 -21 -22 -150 -135 -231 -201 -26 -22 -82 -71 -124
-110 -109 -100 -172 -157 -295 -265 -157 -137 -299 -264 -305 -271 -3 -3 -27
-25 -55 -49 -62 -52 -189 -165 -230 -204 -62 -58 -158 -141 -180 -156 -13 -9
-41 -31 -62 -50 -21 -20 -90 -80 -153 -135 -63 -55 -125 -110 -138 -122 -13
-13 -28 -23 -34 -23 -5 0 -32 -23 -58 -51 -38 -41 -52 -50 -69 -44 -17 5 -34
-5 -81 -51 -33 -31 -57 -60 -55 -64 2 -4 -9 -28 -25 -54 -16 -25 -28 -46 -25
-46 2 0 31 23 64 50 33 28 64 50 68 50 4 -1 -3 -10 -16 -20 -13 -11 -19 -20
-14 -20 12 0 59 50 55 57 -2 2 0 8 4 11 4 4 4 1 0 -5 -12 -21 9 -14 32 10 12
13 19 27 15 31 -5 4 -1 13 8 19 30 22 123 102 213 182 105 94 151 134 187 160
24 18 135 117 290 259 30 28 91 83 134 121 44 39 129 115 189 170 61 55 129
116 150 135 22 19 67 60 101 90 153 139 298 266 313 274 10 5 80 68 157 140
260 244 523 476 541 476 6 0 30 16 53 36 40 34 44 36 59 20 14 -14 15 -18 3
-25 -9 -6 -10 -11 -2 -15 6 -4 11 -3 11 2 0 6 14 15 30 21 36 12 38 24 6 39
-17 8 -27 7 -37 -1 -11 -10 -11 -9 -1 5 11 14 8 19 -17 37 -16 12 -33 21 -38
21 -4 -1 -32 -22 -61 -48z"/>
<path d="M3938 7197 c-22 -26 -33 -46 -27 -51 5 -6 9 -20 9 -33 0 -13 5 -23
10 -23 15 0 12 -27 -6 -62 -14 -28 -14 -30 0 -25 63 24 -96 -128 -574 -548
-74 -66 -220 -196 -325 -290 -104 -93 -211 -188 -236 -210 -25 -22 -115 -103
-200 -179 -85 -77 -212 -192 -284 -256 -71 -65 -207 -187 -301 -271 -231 -209
-498 -446 -550 -489 -109 -91 -433 -394 -428 -402 3 -4 -3 -8 -13 -8 -10 -1
-37 -20 -60 -43 -24 -23 -70 -64 -102 -92 -33 -27 -58 -56 -56 -62 3 -7 -3
-13 -13 -13 -41 -1 -87 -63 -70 -94 9 -15 7 -16 -9 -8 -39 22 -131 113 -143
142 -12 30 -10 97 5 133 7 16 5 17 -21 5 -51 -21 -57 -31 -49 -87 4 -28 11
-53 16 -57 12 -7 12 -24 0 -24 -13 0 -32 62 -33 108 0 47 17 106 38 122 17 15
18 6 4 -21 -9 -16 -7 -19 15 -19 20 0 54 26 133 103 116 111 208 196 262 241
78 65 74 62 65 46 -4 -8 5 -2 21 15 16 16 28 33 27 37 -2 5 0 7 5 7 18 -3 32
2 32 12 0 5 -6 7 -12 3 -8 -4 -9 -3 -5 2 5 5 14 9 22 9 14 0 277 231 284 249
2 6 -33 -23 -78 -64 -46 -41 -106 -96 -134 -122 -60 -54 -87 -64 -38 -14 l33
34 -34 5 c-21 3 -38 0 -48 -10 -13 -12 -13 -13 5 -8 12 4 2 -10 -25 -35 -123
-115 -143 -132 -136 -121 6 9 -2 7 -22 -3 -36 -18 -46 -32 -32 -41 5 -3 10 1
10 10 0 9 4 13 10 10 5 -3 10 -1 10 6 0 7 3 9 7 6 7 -8 -23 -44 -48 -57 -11
-6 -16 -5 -16 5 0 8 5 11 10 8 6 -4 7 -1 2 7 -6 10 -11 9 -21 -5 -7 -10 -11
-22 -8 -26 3 -5 -1 -6 -9 -3 -8 3 -27 -8 -44 -23 -16 -15 -54 -49 -84 -75
-121 -105 -131 -115 -114 -122 9 -3 13 -2 10 4 -4 6 1 7 11 3 15 -5 14 -9 -10
-30 -29 -24 -52 -22 -41 4 14 39 -30 -15 -51 -62 -43 -91 -25 -199 37 -233 41
-22 141 -109 153 -133 5 -10 17 -21 27 -24 11 -4 25 -12 31 -18 18 -17 423
-357 462 -387 18 -14 45 -37 61 -52 17 -16 33 -28 37 -28 4 0 20 -12 36 -27
16 -16 44 -39 62 -53 18 -14 43 -35 55 -48 12 -12 25 -22 28 -22 3 0 20 -15
39 -32 37 -36 285 -244 351 -295 23 -18 54 -41 69 -53 15 -12 41 -25 57 -30
25 -7 32 -5 44 13 13 20 18 21 48 10 19 -6 55 -15 80 -18 85 -12 149 31 394
265 61 58 166 157 235 220 68 63 155 144 192 179 37 35 68 60 68 54 0 -6 -43
-50 -95 -98 -53 -49 -107 -105 -122 -124 -24 -33 -22 -32 23 10 143 135 237
230 222 225 -26 -8 -21 6 13 32 28 23 41 18 17 -6 -8 -8 -8 -12 -1 -12 6 0 41
33 79 72 37 40 86 88 109 107 22 18 108 97 190 175 83 78 220 207 305 285 85
79 169 158 185 175 89 91 303 285 309 279 3 -3 6 -2 6 4 0 6 39 49 86 96 59
58 85 91 81 101 -4 10 1 20 13 26 17 9 19 8 13 -7 -6 -14 -2 -13 23 5 16 13
44 33 61 45 18 12 33 25 33 28 0 9 300 301 381 372 24 21 87 79 139 130 92 89
150 140 150 134 0 -2 30 26 68 62 111 109 273 239 290 233 6 -2 12 0 12 5 0 4
10 14 23 22 32 20 -224 -232 -313 -308 -95 -80 -128 -112 -325 -307 -88 -88
-200 -195 -250 -239 -49 -43 -180 -167 -290 -275 -110 -108 -247 -241 -305
-295 -58 -55 -143 -136 -189 -180 -46 -44 -93 -89 -105 -100 -75 -71 -466
-443 -536 -510 -47 -45 -134 -129 -195 -186 -60 -57 -159 -153 -220 -213 -60
-61 -123 -120 -138 -132 -16 -12 -72 -64 -125 -116 -54 -51 -125 -118 -158
-148 -33 -31 -73 -73 -89 -94 -38 -49 -122 -91 -216 -106 l-76 -12 13 -61 c7
-34 17 -63 23 -65 6 -2 11 -14 11 -27 0 -13 5 -27 10 -30 16 -10 12 -25 -7
-25 -17 -1 -16 -1 1 -11 10 -6 48 -9 85 -7 79 4 195 56 254 113 40 39 52 63
14 26 -13 -12 -35 -24 -48 -26 -13 -3 -25 -9 -27 -15 -2 -5 -11 -10 -19 -10
-11 0 -9 7 8 27 41 47 258 261 428 423 90 85 187 178 215 205 28 28 94 90 146
139 52 50 136 128 185 175 110 105 323 303 368 342 17 16 40 31 50 35 9 3 15
9 12 14 -7 11 68 70 89 70 9 0 21 11 25 24 5 13 17 26 26 30 24 9 27 8 18 -6
-4 -7 -8 -17 -8 -23 0 -5 -6 -10 -13 -10 -8 0 -20 -8 -27 -19 -8 -10 -18 -15
-24 -11 -6 3 -9 0 -6 -7 5 -12 -262 -278 -605 -603 -58 -55 -162 -154 -231
-220 -69 -66 -142 -133 -162 -150 -20 -16 -66 -64 -103 -105 l-67 -75 84 80
c46 45 136 130 199 191 63 61 214 204 335 319 121 115 261 248 310 295 566
542 872 832 887 841 6 4 7 12 3 19 -6 9 -4 11 4 5 19 -11 131 103 131 133 0
19 4 22 20 17 12 -4 27 -2 34 4 7 6 22 12 34 14 12 2 25 6 28 10 4 4 17 7 28
7 12 0 46 9 76 20 30 11 67 21 81 22 24 2 25 5 19 33 -4 16 -11 38 -15 48 -21
51 37 107 113 107 37 0 45 -4 62 -32 11 -18 18 -39 15 -45 -6 -16 11 -17 21
-1 4 6 7 27 6 46 -2 61 19 21 24 -45 4 -53 2 -64 -19 -89 -13 -16 -27 -39 -31
-52 -12 -35 -50 -55 -93 -48 -62 10 -72 9 -236 -42 -135 -41 -164 -54 -200
-87 -98 -89 -471 -438 -577 -540 -364 -350 -691 -665 -880 -845 -118 -113
-291 -279 -385 -370 -328 -320 -356 -344 -426 -370 -80 -30 -241 -34 -299 -8
-36 16 -92 61 -326 258 -23 19 -63 53 -90 75 -27 22 -121 100 -209 173 -88 74
-169 141 -180 150 -105 86 -134 111 -160 133 -32 29 -142 120 -251 209 -37 30
-76 65 -87 78 -12 12 -27 20 -35 17 -7 -2 -11 -1 -7 4 3 5 -14 24 -37 42 -24
19 -46 38 -51 44 -10 14 -3 -24 11 -58 7 -16 12 -31 12 -34 0 -2 14 -35 31
-71 30 -66 87 -129 189 -211 25 -19 63 -51 86 -71 41 -36 124 -106 177 -150
17 -14 62 -52 102 -85 39 -33 95 -80 125 -105 30 -25 75 -63 100 -85 25 -22
77 -65 114 -95 38 -30 89 -73 115 -95 26 -22 72 -60 101 -84 29 -25 59 -52 68
-60 8 -9 28 -25 43 -36 15 -11 74 -58 130 -104 151 -124 237 -155 355 -131
100 21 156 57 295 190 20 19 101 98 180 175 80 77 194 187 254 245 61 58 176
168 256 245 80 77 201 194 270 260 372 358 641 616 779 750 149 144 213 204
365 347 39 35 96 84 128 107 32 23 61 49 64 57 3 8 11 14 19 14 8 0 14 3 14 8
0 8 135 149 169 175 29 23 94 47 145 53 49 7 81 30 101 74 9 19 20 43 25 52 6
10 10 25 10 33 0 8 5 15 11 15 5 0 7 4 4 10 -3 5 6 27 20 47 14 21 25 43 25
50 0 7 50 63 111 125 l110 113 -5 89 c-4 49 -6 117 -6 152 0 40 -5 68 -14 76
-11 10 -9 16 10 31 13 10 24 23 24 29 0 6 -8 4 -18 -5 -22 -20 -43 -22 -37 -4
10 24 -22 282 -38 314 -17 33 -80 77 -262 185 -120 71 -1287 844 -1400 927
-38 28 -72 51 -75 51 -3 0 -22 -19 -42 -43z"/>
<path d="M6020 6974 l-75 -46 53 6 c47 5 59 2 113 -31 52 -30 64 -33 83 -24
33 18 71 49 66 54 -7 5 -159 87 -162 87 -2 0 -37 -21 -78 -46z"/>
<path d="M7684 6661 c-47 -21 -78 -67 -88 -130 -12 -79 -66 -166 -171 -276
-36 -38 -73 -85 -81 -103 -16 -35 -85 -125 -137 -177 -68 -67 -192 -208 -195
-221 -2 -8 -8 -14 -13 -14 -5 0 -73 -66 -151 -147 -273 -284 -375 -377 -528
-480 -72 -49 -135 -111 -616 -603 -148 -152 -354 -374 -569 -615 -34 -38 -99
-110 -145 -160 -45 -49 -142 -164 -216 -255 -73 -91 -147 -181 -163 -200 -17
-19 -31 -43 -31 -52 0 -11 -8 -18 -20 -18 -22 0 -144 -113 -133 -123 3 -4 0
-7 -8 -7 -8 0 -62 -48 -120 -108 -91 -91 -115 -122 -162 -212 l-55 -105 22
-43 c20 -39 24 -42 36 -27 28 34 47 36 79 9 23 -19 31 -34 31 -59 0 -19 -6
-35 -14 -38 -8 -3 -13 -19 -13 -41 1 -19 5 -33 9 -30 4 3 4 12 1 21 -4 11 -3
14 5 9 7 -4 12 -3 12 3 0 5 -6 11 -12 14 -7 2 -9 8 -5 13 10 11 47 -31 47 -53
0 -8 4 -11 10 -8 6 4 7 -2 1 -17 -14 -37 9 -49 94 -51 46 0 131 38 189 86 140
116 344 326 339 348 -2 5 4 9 12 9 8 0 15 5 15 12 0 6 3 9 6 5 7 -6 10 -4 69
47 70 60 130 110 174 146 24 19 48 40 55 45 6 6 63 57 126 114 132 119 307
281 390 361 32 30 117 111 191 180 299 281 727 720 781 799 28 40 94 127 108
141 3 3 27 32 55 65 27 33 60 69 74 80 13 11 29 26 35 33 19 22 326 322 326
318 0 -1 44 40 98 92 53 52 112 106 131 121 19 14 50 42 70 62 20 20 71 63
113 97 42 33 114 91 160 129 46 38 121 95 168 125 101 66 111 77 119 126 5 31
11 38 33 40 59 7 128 115 128 202 0 140 -141 350 -308 458 -122 79 -267 104
-358 63z"/>
<path d="M1490 5014 c-41 -37 -76 -71 -78 -76 -2 -4 10 -16 27 -25 17 -10 31
-24 31 -30 0 -22 20 -14 78 31 91 71 94 76 63 121 -14 21 -31 40 -36 42 -6 2
-44 -27 -85 -63z"/>
<path d="M1173 4727 c-16 -12 -62 -51 -101 -87 l-72 -64 26 -27 c42 -44 76
-37 160 34 81 67 90 80 68 97 -8 7 -14 18 -14 25 0 6 -8 19 -18 28 -17 16 -20
15 -49 -6z"/>
<path d="M5958 2563 c-9 -2 -20 -12 -23 -21 -3 -9 -59 -73 -125 -140 -126
-130 -139 -154 -105 -198 32 -42 46 -25 -385 -469 -184 -189 -420 -432 -643
-662 -130 -134 -147 -155 -147 -185 0 -18 9 -44 19 -57 16 -21 24 -23 60 -17
28 4 50 2 70 -8 33 -18 41 -34 41 -83 0 -26 8 -43 34 -69 19 -19 44 -34 57
-34 16 0 84 61 238 214 199 197 287 283 685 667 234 224 249 238 284 255 29
13 36 14 43 3 7 -11 9 -11 9 1 0 11 12 15 45 15 25 0 45 3 45 7 0 5 9 8 20 8
27 0 70 22 94 49 11 12 24 21 30 21 6 0 17 9 24 20 7 11 18 20 25 20 6 0 29
14 51 30 21 16 63 35 92 41 30 7 54 18 54 25 0 7 3 20 7 30 5 14 2 16 -21 10
-29 -7 -48 16 -28 36 7 7 7 20 0 42 -14 40 -26 57 -76 109 -45 46 -44 45 -129
114 -32 26 -59 50 -61 54 -3 8 -60 51 -152 115 -44 30 -106 65 -112 63 -2 -1
-11 -3 -20 -6z m16 -528 c-1 -16 -2 -36 -3 -44 -1 -7 -173 -187 -383 -399
-211 -212 -429 -432 -485 -489 -102 -104 -116 -111 -169 -97 -33 9 -48 51 -30
79 21 32 770 770 936 922 61 56 74 63 110 60 21 -2 25 -7 24 -32z"/>
</g>
</svg>
